# xmcd
#
# Track frame offsets: 
#        212
#        23150
#        48212
#        67735
#        92435
#        118822
#        150220
#        178495
#        204397
#        224142
#        246745
#        265307
#        282792
#        303190
#        325920
#
# Disc length: 4639 seconds
#
# Revision: 1
# Processed by: cddbd v1.5.2PL0 Copyright (c) Steve Scherf et al.
# Submitted via: ExactAudioCopy v0.99pb5
#
DISCID=d6121d0f
DTITLE=Fancy - Get Your Kicks
DYEAR=1985
DGENRE=Eurodance
TTITLE0=Colder Than Ice
TTITLE1=Get Your Kicks
TTITLE2=L.A.D.Y. O
TTITLE3=Slice Me Nice
TTITLE4=Chenese Eyes
TTITLE5=Check It Out
TTITLE6=Blood And Honey
TTITLE7=In Shock
TTITLE8=Slice Me Nice - Chinese Eyes (Special Mix '85)
TTITLE9=Come Inside ('83)
TTITLE10=Slice Me Nice (Remix)
TTITLE11=Chinese Eyes (Remix)
TTITLE12=Get Lost Tonight ('84)
TTITLE13=Burn With Impatience ('84)
TTITLE14=Slice Me Nice - S.L.I.C.E. ('91)
EXTD=
EXTT0=
EXTT1=
EXTT2=
EXTT3=
EXTT4=
EXTT5=
EXTT6=
EXTT7=
EXTT8=
EXTT9=
EXTT10=
EXTT11=
EXTT12=
EXTT13=
EXTT14=
PLAYORDER=
